<?xml version="1.0" encoding="utf-8"?>
<!-- Svg Vector Icons : http://www.onlinewebfonts.com/icon -->
<!DOCTYPE svg PUBLIC "-//W3C//DTD SVG 1.1//EN" "http://www.w3.org/Graphics/SVG/1.1/DTD/svg11.dtd">
<svg version="1.1" xmlns="http://www.w3.org/2000/svg" xmlns:xlink="http://www.w3.org/1999/xlink" x="0px" y="0px" viewBox="0 0 256 256" enable-background="new 0 0 256 256" xml:space="preserve">
<metadata> Svg Vector Icons : http://www.onlinewebfonts.com/icon </metadata>
<g><g><g><path fill="#000000" d="M112.4,10.4c-1.6,0.7-3,2.8-3,4.5c0,1.6,1.3,3.7,2.9,4.5c2,1,3,3.5,2.6,6.6c-0.6,5-2.6,9.4-10.4,22.2c-8.5,14-9.6,25.7-3,31.7c3.6,3.2,8.5,4.7,11.2,3.3c1.8-0.9,3.1-3.5,2.6-5.5c-0.3-1.4-2.7-3.7-3.8-3.7c-1.2,0-3.4-1.4-4-2.5c-0.3-0.6-0.5-2.1-0.5-3.4c0-3.4,2.1-8.2,6.7-15.6c11.8-19,14.2-31,7.5-38.6C118.3,10.5,115,9.3,112.4,10.4z"/><path fill="#000000" d="M137.6,38.7c-4.2,1.2-4.7,2.7-1.7,6.1c1,1.2,1.7,2.2,1.4,2.2c-0.3,0-0.5,0.7-0.5,1.5c0,1.8-1.5,5.3-4,9.1c-8.2,12.8-7.9,22.2,0.8,25.5c3.8,1.5,7.1-0.1,7.7-3.7c0.4-2.6-1.1-4.7-4.3-5.7c-1.4-0.5-0.7-2.7,2.8-8.4c5.1-8.4,6.8-12.8,6.8-18c0-3.4-0.8-5.3-3.1-7.5C141.7,37.9,141,37.8,137.6,38.7z"/><path fill="#000000" d="M48.2,97.3c-0.9,0.4-1.8,1.3-2.4,2.3c-1.7,3.6,1,7.4,5.3,7.4c1.7,0,2.1,0.1,2.3,1c0.1,0.6,0.6,2.8,1,4.9c1,5.1,2.3,9,5,14.7c7.6,16.3,21.2,29.9,37.2,37.3l3.8,1.7l-12.1,21.9c-10.5,18.9-12.3,21.9-13.1,21.7c-0.5-0.1-2.8-0.2-5.2-0.2c-3.7,0-4.6,0.2-7,1.4c-3.5,1.7-7.4,5.6-9.1,9.1c-1.2,2.5-1.4,3.3-1.4,7.3c0,3.9,0.2,4.9,1.3,7.2c1.7,3.7,5.7,7.5,9.7,9.4c2.7,1.3,3.8,1.5,6.7,1.5s4-0.2,6.7-1.5c4.3-2,7.5-5.1,9.6-9.3c0.9-1.8,1.7-3.7,1.7-4.3c0-0.5,0.1-1.5,0.3-2.1l0.3-1h36h35.9l3.5,7.6c3.9,8.4,5,10.1,7,10.5c2.9,0.6,6.2-2,6.2-5c0-0.5-7.6-17.3-17-37.3c-9.3-20-17-36.5-17-36.7c0-0.2,1.4-1,3.1-1.7c14.9-6.3,29.4-20.3,37.2-36l1.2-2.5h11.3h11.3l1.4-1.2c1.8-1.5,2.3-3.4,1.3-5.6c-1.2-2.9-2.4-3.2-12.6-3.2h-9l0.3-1.1c0.8-2.7,1.7-9.2,1.7-12.1c0.1-3.8-0.7-5.4-3.1-6.4C185.1,96.2,50.5,96.3,48.2,97.3z M180,109.5c-1.4,11.3-9,25.2-18.8,34.5c-20.2,19.1-48.7,21.6-71,6.2c-9.8-6.7-18.8-18-22.8-28.4c-1.6-4.2-3.7-12-3.7-13.8v-1.1H122h58.3L180,109.5z M120.5,170.3c3.1,0,7.3-0.1,9.3-0.3l3.6-0.4l10.8,23c5.9,12.6,11,23.4,11.2,23.8c0.4,0.8-1.5,0.8-35.3,0.8c-24.6,0-35.6-0.1-35.6-0.5c0-0.2,5.9-11,13-24l13-23.5l2.2,0.4C113.8,170,117.4,170.3,120.5,170.3z M75,221.2c2.7,1.7,3.4,3.5,3.2,7.5c-0.3,4.7-3,7-7.9,7c-5,0-7.6-2.4-7.9-7.2c-0.4-5.6,2.6-8.8,8.1-8.8C72.2,219.7,73.3,220.1,75,221.2z"/><path fill="#000000" d="M77.4,113.8c-2.1,1.8-2.3,3.3-0.7,8c1.7,5,4.6,10.1,8.4,14.8c3.8,4.8,5.7,5.7,8.7,4.1c1.8-0.9,3-3.2,2.6-5.2c-0.2-0.9-1.3-2.7-2.7-4.3c-4.1-4.6-7.2-10.3-8.2-14.7c-0.4-2.2-2.7-3.9-5-3.9C79.3,112.6,78.4,113,77.4,113.8z"/></g></g></g>
</svg>